<?xml version="1.0" encoding="UTF-8" standalone="no"?>
<svg width="18px" height="17px" viewBox="0 0 18 17" version="1.1" xmlns="http://www.w3.org/2000/svg" xmlns:xlink="http://www.w3.org/1999/xlink">
    <!-- Generator: sketchtool 40 (33762) - http://www.bohemiancoding.com/sketch -->
    <title>F9700B04-D184-47B9-8DA8-ECC4DA6D70A9</title>
    <desc>Created with sketchtool.</desc>
    <defs></defs>
    <g id="Admin---Home" stroke="none" stroke-width="1" fill="none" fill-rule="evenodd">
        <g transform="translate(-405.000000, -229.000000)" id="Default-Message" fill="#1666AF">
            <g transform="translate(405.000000, 226.000000)">
                <g id="Group-2">
                    <g id="Fill-1-Copy-+-Fill-2-Copy" transform="translate(0.000000, 3.000000)">
                        <path d="M16.8521389,14.2570098 L13.8024172,11.2699194 L13.7779748,11.2518932 C13.6902329,11.1677711 13.5905831,11.1040785 13.4865463,11.05 C13.2552836,11.418335 12.9795233,11.7686438 12.6486109,12.0859046 C12.2863621,12.433209 11.8808691,12.7228297 11.4478,12.9601744 C11.5067124,13.070735 11.5781594,13.1764886 11.6746755,13.2684221 L11.6991179,13.2870492 L14.7482129,16.2741395 C14.9951437,16.5108834 15.3204156,16.6292553 15.6456874,16.6292553 C15.971586,16.6292553 16.2968578,16.5108834 16.5437887,16.2741395 L16.8521389,15.9785101 C17.3453738,15.5050224 17.3453738,14.7304975 16.8521389,14.2570098 Z" id="Fill-1-Copy"></path>
                        <path d="M12.354019,11.8437124 C15.1798054,9.13450209 15.1798054,4.741983 12.354019,2.03190771 C10.9402235,0.677302569 9.08884619,0 7.23656663,0 C5.3851893,0 3.53290974,0.677302569 2.12001651,2.03190771 C-0.70667217,4.741983 -0.70667217,9.13450209 2.12001651,11.8437124 C3.53290974,13.1983175 5.3851893,13.8756201 7.23656663,13.8756201 C9.08884619,13.8756201 10.9402235,13.1983175 12.354019,11.8437124 L12.354019,11.8437124 Z M3.65651534,10.3723309 C1.6725101,8.47017466 1.6725101,5.38555019 3.65651534,3.48339393 C4.64896907,2.5318833 5.94908346,2.05699299 7.24919786,2.05699299 C8.55021448,2.05699299 9.85032887,2.5318833 10.8418804,3.48339393 C12.8267878,5.38555019 12.8267878,8.47017466 10.8418804,10.3723309 C9.85032887,11.3238416 8.55021448,11.7995969 7.24919786,11.7995969 C5.94908346,11.7995969 4.64896907,11.3238416 3.65651534,10.3723309 L3.65651534,10.3723309 Z" id="Fill-2-Copy"></path>
                    </g>
                </g>
            </g>
        </g>
    </g>
</svg>