<?xml version="1.0" encoding="UTF-8" standalone="no"?>
<svg width="16px" height="16px" viewBox="0 0 16 16" version="1.1" xmlns="http://www.w3.org/2000/svg" xmlns:xlink="http://www.w3.org/1999/xlink">
    <!-- Generator: sketchtool 40 (33762) - http://www.bohemiancoding.com/sketch -->
    <title>6D65D99B-2BF4-4323-B2CD-6A2989331B68</title>
    <desc>Created with sketchtool.</desc>
    <defs></defs>
    <g id="Admin---Application-Details-Collapsed" stroke="none" stroke-width="1" fill="none" fill-rule="evenodd">
        <g id="Admin---Application-Details-CollapsedV2" transform="translate(-713.000000, -362.000000)">
            <g id="Group-8" transform="translate(-224.000000, 188.000000)">
                <g id="Group-10" transform="translate(937.000000, 172.000000)">
                    <g id="Group-2" transform="translate(0.000000, 2.000000)">
                        <path d="M8,16 C12.418278,16 16,12.418278 16,8 C16,3.581722 12.418278,0 8,0 C3.581722,0 0,3.581722 0,8 C0,12.418278 3.581722,16 8,16 Z" id="Oval" fill="#CF102D"></path>
                        <path d="M5.83641378,8 L2.26268155,11.5737322 C1.88023154,11.9561822 1.87665836,12.5941133 2.26791845,12.9853734 L3.01462657,13.7320816 C3.40382102,14.121276 4.03789995,14.1256863 4.42626778,13.7373184 L8,10.1635862 L11.5737322,13.7373184 C11.9561822,14.1197685 12.5941133,14.1233416 12.9853734,13.7320816 L13.7320816,12.9853734 C14.121276,12.596179 14.1256863,11.9621 13.7373184,11.5737322 L10.1635862,8 L13.7373184,4.42626778 C14.1197685,4.04381776 14.1233416,3.40588665 13.7320816,3.01462657 L12.9853734,2.26791845 C12.596179,1.878724 11.9621,1.87431373 11.5737322,2.26268155 L8,5.83641378 L4.42626778,2.26268155 C4.04381776,1.88023154 3.40588665,1.87665836 3.01462657,2.26791845 L2.26791845,3.01462657 C1.878724,3.40382102 1.87431373,4.03789995 2.26268155,4.42626778 L5.83641378,8 Z" id="Rectangle-217" fill="#FFFFFF"></path>
                    </g>
                </g>
            </g>
        </g>
    </g>
</svg>